<svg width="40" height="32" viewBox="0 0 30 24" xmlns="http://www.w3.org/2000/svg">
	<g fill="#292929">
		<path opacity=".16" d="M0 0h1.95C1.81 1.28 1.16 1.85 0 1.72V0zM27.62 0H30v1.6c-1.12.05-1.92-.49-2.38-1.6zM0 3.92c2.96 4.68 8.37 6.89 12.6 10.22 2.91 2.46 5.87-.84 8.27-2.35C24.03 9.2 28.55 7.65 30 3.5v4.64c-2.81 2.19-5.85 4.06-8.71 6.18-1.94 1.31-3.86 2.96-6.28 3.2-2.43-.27-4.35-1.92-6.29-3.24C5.85 12.16 2.81 10.29 0 8.09V3.92zM0 22.11c1.3.1 1.88.73 1.75 1.89H0v-1.89zM28.03 24c.15-1.16.81-1.76 1.97-1.8V24h-1.97z"/></g>
		<g fill="#fff">
		<path d="M1.95 0h25.67c.46 1.11 1.26 1.65 2.38 1.6v1.9c-1.45 4.15-5.97 5.7-9.13 8.29-2.4 1.51-5.36 4.81-8.27 2.35C8.37 10.81 2.96 8.6 0 3.92v-2.2c1.16.13 1.81-.44 1.95-1.72z"/>
		<path d="M0 8.09c2.81 2.2 5.85 4.07 8.72 6.19 1.94 1.32 3.86 2.97 6.29 3.24 2.42-.24 4.34-1.89 6.28-3.2 2.86-2.12 5.9-3.99 8.71-6.18V22.2c-1.16.04-1.82.64-1.97 1.8H1.75c.13-1.16-.45-1.79-1.75-1.89V8.09z"/>
	</g>
</svg>