<svg width="1919" height="341" viewBox="0 0 1919 341" fill="none" xmlns="http://www.w3.org/2000/svg">
<path fill-rule="evenodd" clip-rule="evenodd" d="M7.80368 161.657C5.20036 162.372 2.59743 163.086 0 163.82V341H1919L1919 340.53C1910.19 338.735 1901.37 336.99 1892.56 335.244L1892.54 335.241L1892.53 335.24C1875.32 331.833 1858.1 328.425 1840.96 324.65C1793.81 314.27 1746.95 302.49 1700.54 289.18C1679.91 283.52 1659.41 277.39 1639.03 270.93C1630.74 268.474 1622.52 265.787 1614.31 263.102L1614.31 263.101C1609.95 261.676 1605.59 260.25 1601.22 258.86C1600.19 258.51 1599.18 258.18 1598.19 257.86C1597.16 257.54 1596.15 257.21 1595.17 256.88C1580.44 252.08 1565.73 247.19 1551.23 241.77C1546.48 240.26 1541.73 238.74 1537.12 236.88C1536.65 236.729 1536.18 236.583 1535.72 236.437C1535.17 236.265 1534.63 236.094 1534.09 235.92C1532.54 235.349 1530.99 234.815 1529.43 234.281C1527.2 233.516 1524.97 232.752 1522.78 231.88C1513.52 228.65 1504.28 225.33 1495.15 221.76C1492.42 220.94 1489.73 220.04 1487.16 218.86C1484.42 217.97 1481.71 217.01 1479.08 215.89C1470.26 212.715 1461.55 209.258 1452.84 205.801L1452.83 205.799C1448.62 204.129 1444.41 202.458 1440.19 200.82C1436.82 199.55 1433.45 198.26 1430.13 196.89C1428.4 196.28 1426.69 195.62 1425.03 194.91C1411.99 189.799 1399.06 184.438 1386.14 179.083L1383.19 177.86C1377.01 175.361 1370.83 172.878 1364.64 170.394C1353.48 165.91 1342.31 161.426 1331.18 156.85C1330.41 156.557 1329.64 156.268 1328.88 155.979C1326.26 154.994 1323.65 154.011 1321.09 152.89C1309.33 148.42 1297.64 143.751 1285.96 139.086C1284.05 138.324 1282.14 137.561 1280.23 136.8C1276.82 135.59 1273.45 134.3 1270.13 132.89C1269.39 132.627 1268.65 132.359 1267.92 132.092L1267.91 132.089C1267.2 131.829 1266.49 131.571 1265.78 131.32C1259.65 128.964 1253.55 126.561 1247.44 124.158L1247.43 124.154C1237.7 120.325 1227.96 116.496 1218.16 112.86C1215.42 111.968 1212.74 110.935 1210.06 109.901C1207.66 108.976 1205.26 108.052 1202.82 107.23C1199.22 105.85 1195.61 104.508 1192 103.165L1191.99 103.162L1191.99 103.162C1186.38 101.08 1180.78 98.9983 1175.24 96.78C1170.44 95.2249 1165.73 93.4228 1161.03 91.6245L1161.03 91.6236C1160.38 91.3755 1159.73 91.1274 1159.08 90.88C1150.81 87.9005 1142.52 84.9774 1134.23 82.055C1126.53 79.3376 1118.83 76.6208 1111.14 73.86C1083.49 64.32 1055.72 55.16 1027.86 46.27C994.11 35.68 959.86 26.49 924.97 20.5C885.57 13.26 845.86 7.67 805.96 4.14C783.59 1.88 761.13 0.53 738.64 0H688.25C666.76 0.43 645.34 1.99 623.95 3.98C617.034 4.66418 610.107 5.24442 603.18 5.8247L603.179 5.82477C592.388 6.72872 581.595 7.63278 570.84 8.93C545.09 11.77 519.52 16.03 494 20.46C455.04 27.98 416.33 36.65 377.74 45.86C327.36 58.16 277.54 72.71 227.97 87.92C219.754 90.5128 211.564 93.1875 203.375 95.8623C197.54 97.768 191.705 99.6737 185.86 101.55C184.579 102.015 183.273 102.414 181.968 102.813C179.626 103.528 177.286 104.242 175.09 105.34C174.784 105.415 174.309 105.537 173.862 105.651C173.533 105.735 173.22 105.815 173 105.87C171.99 106.27 170.98 106.62 169.95 106.94C164.723 108.869 159.436 110.596 154.153 112.322L152.75 112.78C149.303 114.272 145.737 115.429 142.17 116.586L142.17 116.586C140.19 117.228 138.21 117.87 136.25 118.57C134.379 119.251 132.512 119.942 130.644 120.632L130.643 120.633C124.753 122.811 118.86 124.989 112.87 126.88C94.61 133.78 76.27 140.52 57.69 146.54C54.5255 147.553 51.3685 148.592 48.2113 149.631L48.2085 149.632L48.2083 149.632C39.2146 152.592 30.2199 155.552 21.05 157.92C16.65 159.229 12.2263 160.443 7.80368 161.657Z" fill="white"/>
</svg>
