<svg width="1920" height="342" viewBox="0 0 1920 342" fill="none" xmlns="http://www.w3.org/2000/svg">
<path fill-rule="evenodd" clip-rule="evenodd" d="M1920 0H0V0.48999C7.60123 2.02002 15.2087 3.52597 22.8167 5.03203C52.552 10.9183 82.2959 16.8064 111.71 24.14C128.04 27.74 144.3 31.8 160.44 36.12C163.081 36.8054 165.724 37.4856 168.367 38.1658C178.37 40.7403 188.371 43.3144 198.29 46.17C200.7 46.67 203.07 47.35 205.39 48.18C207.298 48.7214 209.21 49.2479 211.122 49.7744C215.073 50.8623 219.025 51.9503 222.94 53.17C225.32 53.66 227.66 54.33 229.97 55.09C239.087 57.5231 248.115 60.2709 257.141 63.0182C260.579 64.0647 264.017 65.1111 267.46 66.14C270.63 67.12 273.79 68.11 276.96 69.12C277.791 69.3886 278.636 69.6502 279.478 69.9106C279.639 69.9604 279.799 70.0102 279.96 70.06C309.38 79.31 338.8 88.65 367.78 99.21C368.257 99.3662 368.734 99.5221 369.211 99.678C373.466 101.069 377.728 102.462 381.9 104.09C395.97 108.9 409.98 113.91 423.85 119.23C426.56 120.06 429.25 120.97 431.84 122.13C436.4 123.7 440.93 125.37 445.38 127.24C445.625 127.295 445.99 127.375 446.355 127.455C446.72 127.535 447.085 127.615 447.33 127.67C453.384 130.25 459.523 132.629 465.661 135.008C470.038 136.705 474.415 138.401 478.76 140.17C482.14 141.46 485.52 142.75 488.88 144.1C490.57 144.73 492.26 145.38 493.93 146.09C502.607 149.445 511.205 152.991 519.803 156.537C524.84 158.614 529.877 160.691 534.93 162.73C536.536 163.391 538.151 164.037 539.766 164.684C542.232 165.672 544.699 166.661 547.14 167.7C552.932 170.093 558.755 172.409 564.577 174.725C572.357 177.819 580.136 180.913 587.84 184.19C589.53 184.76 591.22 185.38 592.86 186.11C594.56 186.72 596.25 187.38 597.91 188.1C607.595 191.788 617.229 195.617 626.86 199.444C630.833 201.023 634.805 202.602 638.78 204.17C639.459 204.43 640.138 204.688 640.818 204.947C643.514 205.973 646.213 207 648.88 208.11C650.29 208.64 651.72 209.16 653.16 209.66C659.352 212.04 665.525 214.465 671.699 216.89C677.56 219.193 683.422 221.495 689.3 223.76C695.273 226.048 701.277 228.265 707.283 230.482C710.226 231.568 713.17 232.655 716.11 233.75C718.7 234.759 721.313 235.718 723.926 236.677C727.89 238.131 731.856 239.587 735.75 241.22C738.47 242.07 741.18 243 743.77 244.21C747.941 245.572 752.041 247.128 756.143 248.684C757.401 249.161 758.659 249.638 759.92 250.11C762.76 251.06 765.58 252.06 768.37 253.16C822.84 272.44 877.46 291.53 933.14 307.08C960.72 314.5 988.81 319.82 1016.97 324.51C1064.3 332.46 1112.09 337.66 1159.99 340.39C1165.84 340.433 1171.67 340.689 1177.51 340.944C1182.56 341.165 1187.6 341.387 1192.65 341.47C1237.24 342.425 1281.65 338.349 1325.99 334.281C1329.02 334.003 1332.04 333.726 1335.06 333.45C1383.19 328.69 1430.86 320.06 1478.07 309.62C1484.97 308.027 1491.88 306.496 1498.79 304.965C1511.59 302.131 1524.38 299.297 1537.09 296.07C1538.46 295.75 1539.81 295.44 1541.22 295.14C1554.14 292.123 1566.96 288.702 1579.78 285.283C1585.01 283.886 1590.25 282.489 1595.49 281.12C1602.52 279.02 1609.59 277.04 1616.68 275.15C1622.65 273.404 1628.64 271.7 1634.64 269.996C1639.15 268.714 1643.66 267.431 1648.16 266.13C1662.43 261.73 1676.72 257.39 1691.01 253.06C1692 252.74 1693 252.43 1694.03 252.13C1699.55 250.312 1705.09 248.54 1710.62 246.767C1721.78 243.195 1732.94 239.623 1743.96 235.68C1744.22 235.608 1744.63 235.5 1745.02 235.394C1745.4 235.295 1745.76 235.198 1746.01 235.13C1747.01 234.78 1748.03 234.42 1749.06 234.05C1751.42 233.128 1753.83 232.335 1756.25 231.54C1757.06 231.275 1757.86 231.01 1758.67 230.74C1760.88 229.972 1763.11 229.235 1765.35 228.495L1766.24 228.2C1768.92 227.03 1771.7 226.114 1774.48 225.197C1775.47 224.869 1776.47 224.54 1777.46 224.2C1781.72 222.829 1785.92 221.276 1790.11 219.722C1794.42 218.126 1798.74 216.529 1803.12 215.13C1804.37 214.64 1805.62 214.17 1806.92 213.7C1807.9 213.348 1808.88 213.012 1809.87 212.675C1812.5 211.781 1815.13 210.884 1817.63 209.67C1818.1 209.56 1819.03 209.35 1819.49 209.24C1833.79 203.63 1848.37 198.72 1862.97 193.92C1881.76 187.62 1900.75 181.84 1920 177.14V0Z" fill="white"/>
</svg>
