<svg width="1921" height="347" viewBox="0 0 1921 347" fill="none" xmlns="http://www.w3.org/2000/svg">
<path d="M1915.94 345.55C1903.13 341.99 1889.83 340.29 1876.88 337.29C1829.43 326.29 1781.81 315.95 1734.67 303.75C1647.32 281.14 1561.8 252.56 1477.56 220.33C1427.56 201.18 1378.1 180.4 1328.34 160.5C1234.53 122.973 1139.7 88.24 1043.84 56.3C984.854 36.823 924.079 23.2531 862.41 15.79C817.77 10.32 773.07 5.38 728.07 4.94C704.94 4.72 681.76 5.65 658.66 7.09C631.09 8.8 603.58 11.46 576.06 13.99C541.06 17.21 506.52 23.47 472.06 30.4C373.25 50.26 276.35 77.19 180.81 109.07C138.51 123.19 96.69 138.76 54.51 153.24C38.17 158.85 21.42 163.3 4.84 168.24C3.24531 168.6 1.62841 168.854 0 169L0 0H1920.88V347C1920.88 347 1917.2 345.9 1915.94 345.55Z" fill="white"/>
</svg>
