<svg width="1920" height="342" viewBox="0 0 1920 342" fill="none" xmlns="http://www.w3.org/2000/svg">
<g clip-path="url(#clip0)">
<path d="M0 176C34.53 187.08 69.37 197.28 103.51 209.44C172.2 233.9 241.35 256.8 311.58 276.44C372.52 293.49 434.09 307.75 496.21 319.64C536.121 327.277 576.458 332.484 617 335.23C646.73 337.23 676.48 339.84 706.25 340.37C759.96 341.32 813.25 335.76 866.58 329.15C946.53 319.23 1023.25 297.08 1099.04 270.7C1177.18 243.5 1254.4 213.9 1331.29 183.4C1376.15 165.6 1420.72 147.05 1465.74 129.65C1534.67 103.017 1604.58 79.2233 1675.48 58.27C1751.48 35.86 1828.37 16.84 1906.3 2.27C1910.85 1.42 1915.44 0.75 1920.01 0V342H0V176Z" fill="white"/>
</g>
<defs>
<clipPath id="clip0">
<rect width="1920" height="341.97" fill="white"/>
</clipPath>
</defs>
</svg>
